<svg width="18" height="18" viewBox="0 0 18 18" fill="none" xmlns="http://www.w3.org/2000/svg">
<path d="M4.94995 8.54776C4.94995 6.50326 4.94995 5.48101 5.5822 4.84576C6.2152 4.21051 7.23295 4.21051 9.26995 4.21051H11.43C13.4662 4.21051 14.4847 4.21051 15.117 4.84576C15.75 5.48101 15.75 6.50326 15.75 8.54776V12.1628C15.75 14.2073 15.75 15.2295 15.117 15.8648C14.4847 16.5 13.4662 16.5 11.43 16.5H9.26995C7.23295 16.5 6.2152 16.5 5.5822 15.8648C4.94995 15.2295 4.94995 14.2073 4.94995 12.1628V8.54776Z" fill="#A3A3A3"/>
<path opacity="0.5" d="M3.129 2.37906C2.25 3.25731 2.25 4.67181 2.25 7.50006V9.00006C2.25 11.8283 2.25 13.2428 3.129 14.1211C3.59175 14.5846 4.20375 14.8036 5.094 14.9071C4.95 14.2771 4.95 13.4101 4.95 12.1621V8.54781C4.95 6.50331 4.95 5.48106 5.58225 4.84581C6.21525 4.21056 7.233 4.21056 9.27 4.21056H11.43C12.669 4.21056 13.53 4.21056 14.1585 4.35306C14.055 3.45831 13.836 2.84406 13.371 2.37906C12.4928 1.50006 11.0783 1.50006 8.25 1.50006C5.42175 1.50006 4.00725 1.50006 3.129 2.37906Z" fill="#A3A3A3"/>
</svg>
