<svg width="26" height="26" viewBox="0 0 26 26" fill="none" xmlns="http://www.w3.org/2000/svg">
<path opacity="0.5" d="M10.3913 3.46666C10.2207 3.62056 10.0417 3.76486 9.85508 3.8989C9.53224 4.11557 9.16933 4.26507 8.78799 4.3409C8.62224 4.3734 8.44891 4.38749 8.10333 4.41457C7.23558 4.4839 6.80116 4.51857 6.43933 4.6464C6.0256 4.79248 5.64983 5.02933 5.33958 5.33958C5.02933 5.64982 4.79248 6.0256 4.64641 6.43932C4.51858 6.80115 4.48391 7.23557 4.41458 8.10332C4.40276 8.33274 4.37817 8.56131 4.34091 8.78799C4.26508 9.16932 4.11558 9.53224 3.89891 9.85507C3.80466 9.9959 3.69199 10.1281 3.46666 10.3913C2.90224 11.0543 2.61949 11.3858 2.45374 11.7325C2.07133 12.5342 2.07133 13.4658 2.45374 14.2675C2.61949 14.6142 2.90224 14.9457 3.46666 15.6087C3.69199 15.8719 3.80466 16.0041 3.89891 16.1449C4.11558 16.4677 4.26508 16.8307 4.34091 17.212C4.37341 17.3777 4.38749 17.5511 4.41458 17.8967C4.48391 18.7644 4.51858 19.1988 4.64641 19.5607C4.79248 19.9744 5.02933 20.3502 5.33958 20.6604C5.64983 20.9706 6.0256 21.2075 6.43933 21.3536C6.80116 21.4814 7.23558 21.5161 8.10333 21.5854C8.44891 21.6125 8.62224 21.6266 8.78799 21.6591C9.16933 21.7349 9.53224 21.8855 9.85508 22.1011C9.99591 22.1953 10.1281 22.308 10.3913 22.5333C11.0543 23.0977 11.3858 23.3805 11.7325 23.5462C12.5342 23.9287 13.4658 23.9287 14.2675 23.5462C14.6142 23.3805 14.9457 23.0977 15.6087 22.5333C15.8719 22.308 16.0041 22.1953 16.1449 22.1011C16.4677 21.8844 16.8307 21.7349 17.212 21.6591C17.3777 21.6266 17.5511 21.6125 17.8967 21.5854C18.7644 21.5161 19.1988 21.4814 19.5607 21.3536C19.9744 21.2075 20.3502 20.9706 20.6604 20.6604C20.9707 20.3502 21.2075 19.9744 21.3536 19.5607C21.4814 19.1988 21.5161 18.7644 21.5854 17.8967C21.6125 17.5511 21.6266 17.3777 21.6591 17.212C21.7349 16.8307 21.8855 16.4677 22.1011 16.1449C22.1953 16.0041 22.308 15.8719 22.5333 15.6087C23.0977 14.9457 23.3805 14.6142 23.5462 14.2675C23.9287 13.4658 23.9287 12.5342 23.5462 11.7325C23.3805 11.3858 23.0977 11.0543 22.5333 10.3913C22.3792 10.2209 22.2348 10.0419 22.1011 9.85507C21.8846 9.53211 21.7344 9.16942 21.6591 8.78799C21.6219 8.56131 21.5973 8.33273 21.5854 8.10332C21.5161 7.23557 21.4814 6.80115 21.3536 6.43932C21.2075 6.0256 20.9707 5.64982 20.6604 5.33958C20.3502 5.02933 19.9744 4.79248 19.5607 4.6464C19.1988 4.51857 18.7644 4.4839 17.8967 4.41457C17.6672 4.40275 17.4387 4.37816 17.212 4.3409C16.8306 4.2656 16.4679 4.11537 16.1449 3.8989C15.9583 3.76486 15.7793 3.62055 15.6087 3.46666C14.9457 2.90224 14.6142 2.61949 14.2675 2.45374C13.8717 2.26457 13.4386 2.16638 13 2.16638C12.5613 2.16638 12.1283 2.26457 11.7325 2.45374C11.3858 2.61949 11.0543 2.90224 10.3913 3.46666Z" fill="#838383"/>
<path d="M17.1492 8.85079C17.3145 9.01616 17.4074 9.24042 17.4074 9.47425C17.4074 9.70808 17.3145 9.93234 17.1492 10.0977L10.0967 17.1502C9.92966 17.3064 9.70849 17.3915 9.47985 17.3877C9.25121 17.3839 9.03299 17.2915 8.87122 17.1298C8.70946 16.9682 8.61681 16.7501 8.61281 16.5214C8.60881 16.2928 8.69378 16.0716 8.84979 15.9044L15.9023 8.85079C15.9842 8.76877 16.0815 8.7037 16.1885 8.6593C16.2956 8.61491 16.4104 8.59206 16.5263 8.59206C16.6422 8.59206 16.757 8.61491 16.864 8.6593C16.9711 8.7037 17.0684 8.76877 17.1503 8.85079M17.1145 15.9401C17.1145 16.2519 16.9907 16.5508 16.7703 16.7713C16.5498 16.9917 16.2509 17.1155 15.9391 17.1155C15.6274 17.1155 15.3284 16.9917 15.108 16.7713C14.8875 16.5508 14.7637 16.2519 14.7637 15.9401C14.7637 15.6284 14.8875 15.3294 15.108 15.109C15.3284 14.8885 15.6274 14.7647 15.9391 14.7647C16.2509 14.7647 16.5498 14.8885 16.7703 15.109C16.9907 15.3294 17.1145 15.6284 17.1145 15.9401ZM10.061 11.2374C10.3727 11.2374 10.6717 11.1135 10.8921 10.8931C11.1125 10.6727 11.2364 10.3737 11.2364 10.062C11.2364 9.75022 11.1125 9.45124 10.8921 9.23081C10.6717 9.01038 10.3727 8.88654 10.061 8.88654C9.74922 8.88654 9.45024 9.01038 9.22981 9.23081C9.00938 9.45124 8.88554 9.75022 8.88554 10.062C8.88554 10.3737 9.00938 10.6727 9.22981 10.8931C9.45024 11.1135 9.74922 11.2374 10.061 11.2374Z" fill="#838383"/>
</svg>
