<svg width="26" height="26" viewBox="0 0 26 26" fill="none" xmlns="http://www.w3.org/2000/svg">
<path opacity="0.5" d="M18.4167 22.75H7.58341C7.00878 22.75 6.45768 22.5217 6.05135 22.1154C5.64502 21.7091 5.41675 21.158 5.41675 20.5833V10.8333L13.0001 3.25L20.5834 10.8333V20.5833C20.5834 21.158 20.3551 21.7091 19.9488 22.1154C19.5425 22.5217 18.9914 22.75 18.4167 22.75Z" fill="#878787"/>
<path d="M21.6667 10.8334C21.6667 10.546 21.5526 10.2705 21.3494 10.0673C21.1462 9.86417 20.8707 9.75003 20.5834 9.75003C20.296 9.75003 20.0205 9.86417 19.8173 10.0673C19.6142 10.2705 19.5 10.546 19.5 10.8334H21.6667ZM6.50003 10.8334C6.50003 10.546 6.38589 10.2705 6.18273 10.0673C5.97956 9.86417 5.70401 9.75003 5.41669 9.75003C5.12938 9.75003 4.85383 9.86417 4.65066 10.0673C4.4475 10.2705 4.33336 10.546 4.33336 10.8334H6.50003ZM21.9841 13.766C22.1884 13.9633 22.4621 14.0725 22.7461 14.07C23.0302 14.0675 23.3019 13.9536 23.5027 13.7528C23.7036 13.5519 23.8175 13.2802 23.82 12.9961C23.8225 12.7121 23.7133 12.4384 23.5159 12.2341L21.9841 13.766ZM13 3.25003L13.7659 2.48412C13.5628 2.28102 13.2873 2.16693 13 2.16693C12.7128 2.16693 12.4373 2.28102 12.2341 2.48412L13 3.25003ZM2.48411 12.2341C2.38064 12.3341 2.29811 12.4536 2.24133 12.5858C2.18456 12.7179 2.15467 12.8601 2.15342 13.0039C2.15217 13.1478 2.17958 13.2904 2.23405 13.4236C2.28852 13.5567 2.36897 13.6777 2.47068 13.7794C2.5724 13.8811 2.69336 13.9615 2.82649 14.016C2.95963 14.0705 3.10228 14.0979 3.24613 14.0966C3.38997 14.0954 3.53213 14.0655 3.6643 14.0087C3.79647 13.952 3.91601 13.8694 4.01594 13.766L2.48411 12.2341ZM7.58336 23.8334H18.4167V21.6667H7.58336V23.8334ZM21.6667 20.5834V10.8334H19.5V20.5834H21.6667ZM6.50003 20.5834V10.8334H4.33336V20.5834H6.50003ZM23.5159 12.2341L13.7659 2.48412L12.2341 4.01595L21.9841 13.766L23.5159 12.2341ZM12.2341 2.48412L2.48411 12.2341L4.01594 13.766L13.7659 4.01595L12.2341 2.48412ZM18.4167 23.8334C19.2786 23.8334 20.1053 23.491 20.7148 22.8815C21.3243 22.272 21.6667 21.4453 21.6667 20.5834H19.5C19.5 20.8707 19.3859 21.1462 19.1827 21.3494C18.9796 21.5526 18.704 21.6667 18.4167 21.6667V23.8334ZM7.58336 21.6667C7.29604 21.6667 7.02049 21.5526 6.81733 21.3494C6.61416 21.1462 6.50003 20.8707 6.50003 20.5834H4.33336C4.33336 21.4453 4.67577 22.272 5.28526 22.8815C5.89476 23.491 6.72141 23.8334 7.58336 23.8334V21.6667Z" fill="#878787"/>
</svg>
