<svg width="18" height="18" viewBox="0 0 18 18" fill="none" xmlns="http://www.w3.org/2000/svg">
<path d="M2.25 12.9376V15.7501H5.0625L13.3575 7.45506L10.545 4.64256L2.25 12.9376ZM15.5325 5.28006C15.602 5.21068 15.6572 5.12826 15.6948 5.03753C15.7325 4.9468 15.7518 4.84954 15.7518 4.75131C15.7518 4.65309 15.7325 4.55582 15.6948 4.46509C15.6572 4.37436 15.602 4.29195 15.5325 4.22256L13.7775 2.46756C13.7081 2.39804 13.6257 2.34287 13.535 2.30524C13.4442 2.2676 13.347 2.24823 13.2488 2.24823C13.1505 2.24823 13.0533 2.2676 12.9625 2.30524C12.8718 2.34287 12.7894 2.39804 12.72 2.46756L11.3475 3.84006L14.16 6.65256L15.5325 5.28006Z" fill="#A3A3A3"/>
</svg>
