<svg width="24" height="24" viewBox="0 0 24 24" fill="none" xmlns="http://www.w3.org/2000/svg">
<path opacity="0.5" d="M17 3H6.5L4.5 4.5L3 9V20L5.5 21.5H19L21 20V9L19 4.5L17 3Z" fill="#838383"/>
<path fill-rule="evenodd" clip-rule="evenodd" d="M17.3475 4.06134C17.1726 3.95444 16.9712 3.89855 16.7662 3.89998L16.76 3.90002L12.9 3.9V8.1H19.5464L17.7562 4.50498C17.756 4.50443 17.7557 4.50389 17.7554 4.50334C17.6631 4.32098 17.5219 4.16792 17.3475 4.06134ZM20.1 9.9H3.89998V19C3.89998 19.2917 4.01587 19.5715 4.22216 19.7778C4.42845 19.9841 4.70824 20.1 4.99998 20.1H19C19.2917 20.1 19.5715 19.9841 19.7778 19.7778C19.9841 19.5715 20.1 19.2917 20.1 19V9.9ZM4.45621 8.1H11.1V3.9L7.2382 3.9C7.03413 3.8996 6.83398 3.95597 6.66011 4.06281C6.48659 4.16945 6.34608 4.32216 6.25424 4.50393C6.25406 4.50429 6.25388 4.50464 6.2537 4.505L4.45621 8.1ZM16.7571 2.1C17.2964 2.09688 17.8259 2.2442 18.2861 2.52544C18.7473 2.80726 19.1205 3.21236 19.3637 3.69502L19.3656 3.69882L21.8056 8.59882C21.8677 8.72345 21.9 8.86078 21.9 9V19C21.9 19.7691 21.5944 20.5068 21.0506 21.0506C20.5067 21.5945 19.7691 21.9 19 21.9H4.99998C4.23085 21.9 3.49322 21.5945 2.94937 21.0506C2.40551 20.5068 2.09998 19.7691 2.09998 19V9C2.09998 8.86028 2.13251 8.72248 2.19499 8.59751L4.64625 3.695C4.88834 3.21455 5.25933 2.81092 5.71769 2.52924C6.17579 2.24773 6.70312 2.09912 7.24079 2.1C7.24111 2.1 7.24047 2.1 7.24079 2.1H16.7571Z" fill="#838383"/>
</svg>