<svg width="18" height="19" viewBox="0 0 18 19" fill="none" xmlns="http://www.w3.org/2000/svg">
<path fill-rule="evenodd" clip-rule="evenodd" d="M14.25 16.25H3.75C2.9055 16.25 2.3055 15.8818 1.941 15.3755C1.65767 14.9724 1.50385 14.4927 1.5 14V5C1.5 4.40326 1.73705 3.83097 2.15901 3.40901C2.58097 2.98705 3.15326 2.75 3.75 2.75H11.25C11.8467 2.75 12.419 2.98705 12.841 3.40901C13.2629 3.83097 13.5 4.40326 13.5 5V8.75H15.75C15.9489 8.75 16.1397 8.82902 16.2803 8.96967C16.421 9.11032 16.5 9.30109 16.5 9.5V14C16.5 14.3698 16.395 14.9082 16.059 15.3755C15.6938 15.8825 15.0938 16.25 14.25 16.25ZM15 11C15 10.8011 14.921 10.6103 14.7803 10.4697C14.6397 10.329 14.4489 10.25 14.25 10.25C14.0511 10.25 13.8603 10.329 13.7197 10.4697C13.579 10.6103 13.5 10.8011 13.5 11V14C13.5 14.1989 13.579 14.3897 13.7197 14.5303C13.8603 14.671 14.0511 14.75 14.25 14.75C14.4489 14.75 14.6397 14.671 14.7803 14.5303C14.921 14.3897 15 14.1989 15 14V11Z" fill="#0085FE"/>
</svg>
