<svg width="32" height="32" viewBox="0 0 32 32" fill="none" xmlns="http://www.w3.org/2000/svg">
<rect opacity="0.3" x="5.33301" y="5.33333" width="21.3333" height="21.3333" fill="#787878"/>
<path d="M25.6 4H6.4C5.08 4 4 5.08 4 6.4V25.6C4 26.92 5.08 28 6.4 28H25.6C26.92 28 28 26.92 28 25.6V6.4C28 5.08 26.92 4 25.6 4ZM11.2 25.6H6.4V20.8H11.2V25.6ZM11.2 18.4H6.4V13.6H11.2V18.4ZM11.2 11.2H6.4V6.4H11.2V11.2ZM18.4 25.6H13.6V20.8H18.4V25.6ZM18.4 18.4H13.6V13.6H18.4V18.4ZM18.4 11.2H13.6V6.4H18.4V11.2ZM25.6 25.6H20.8V20.8H25.6V25.6ZM25.6 18.4H20.8V13.6H25.6V18.4ZM25.6 11.2H20.8V6.4H25.6V11.2Z" fill="#787878"/>
</svg>
