<svg width="26" height="26" viewBox="0 0 26 26" fill="none" xmlns="http://www.w3.org/2000/svg">
<path opacity="0.5" fill-rule="evenodd" clip-rule="evenodd" d="M3.75269 3.75266C2.16669 5.34082 2.16669 7.89316 2.16669 13C2.16669 18.1068 2.16669 20.6602 3.75269 22.2462C5.34085 23.8333 7.89319 23.8333 13 23.8333C18.1069 23.8333 20.6603 23.8333 22.2463 22.2462C23.8334 20.6613 23.8334 18.1068 23.8334 13C23.8334 7.89316 23.8334 5.33974 22.2463 3.75266C20.6614 2.16666 18.1069 2.16666 13 2.16666C7.89319 2.16666 5.33977 2.16666 3.75269 3.75266Z" fill="#838383"/>
<path d="M9.21271 14.2751C8.90877 13.9524 8.48957 13.763 8.04655 13.7482C7.60352 13.7334 7.17261 13.8944 6.84779 14.196L5.97029 15.0118C5.81227 15.1584 5.60245 15.2363 5.38699 15.2283C5.17154 15.2203 4.96809 15.127 4.82142 14.969C4.67474 14.8109 4.59685 14.6011 4.60487 14.3857C4.6129 14.1702 4.70618 13.9668 4.86421 13.8201L5.74171 13.0054C6.3808 12.4116 7.22877 12.0947 8.10064 12.1237C8.97251 12.1527 9.79752 12.5254 10.3957 13.1603L13.2633 16.2045C13.4082 16.3583 13.6047 16.4535 13.8152 16.4719C14.0258 16.4902 14.2357 16.4306 14.4051 16.3042C15.0346 15.8345 15.8102 15.6031 16.5941 15.6509C17.3781 15.6986 18.1197 16.0226 18.6875 16.5653L21.1445 18.9128C21.2936 19.0632 21.378 19.2657 21.3799 19.4774C21.3819 19.6891 21.3011 19.8931 21.1549 20.0462C21.0086 20.1992 20.8084 20.2891 20.5969 20.2968C20.3853 20.3044 20.1791 20.2292 20.0222 20.0872L17.5652 17.7407C17.2751 17.4633 16.8961 17.2978 16.4954 17.2734C16.0948 17.249 15.6985 17.3674 15.3769 17.6074C14.8878 17.9723 14.2816 18.1446 13.6737 18.0914C13.0658 18.0383 12.4987 17.7635 12.0803 17.3193L9.21271 14.2751ZM19.5 8.66667C19.5 9.2413 19.2718 9.7924 18.8654 10.1987C18.4591 10.6051 17.908 10.8333 17.3334 10.8333C16.7587 10.8333 16.2076 10.6051 15.8013 10.1987C15.395 9.7924 15.1667 9.2413 15.1667 8.66667C15.1667 8.09203 15.395 7.54093 15.8013 7.1346C16.2076 6.72827 16.7587 6.5 17.3334 6.5C17.908 6.5 18.4591 6.72827 18.8654 7.1346C19.2718 7.54093 19.5 8.09203 19.5 8.66667Z" fill="#838383"/>
</svg>
