<svg width="10" height="18" viewBox="0 0 10 18" fill="none" xmlns="http://www.w3.org/2000/svg">
<path d="M5 16.8H4.33333V17.4667H5V16.8ZM5.4714 0.728608C5.21105 0.468258 4.78895 0.468258 4.5286 0.728608L0.285954 4.97125C0.0256052 5.2316 0.0256052 5.65371 0.285954 5.91406C0.546304 6.17441 0.968414 6.17441 1.22876 5.91406L5 2.14282L8.77124 5.91406C9.03159 6.17441 9.4537 6.17441 9.71405 5.91406C9.97439 5.65371 9.97439 5.2316 9.71405 4.97125L5.4714 0.728608ZM5.66667 16.8V1.20001H4.33333V16.8H5.66667ZM5 17.4667H9V16.1333H5V17.4667Z" fill="#0085FE"/>
</svg>
