<svg width="26" height="26" viewBox="0 0 26 26" fill="none" xmlns="http://www.w3.org/2000/svg">
<path opacity="0.5" d="M10.5625 4.06244C10.5625 3.58035 10.7055 3.10908 10.9733 2.70824C11.2411 2.30739 11.6218 1.99497 12.0672 1.81048C12.5126 1.626 13.0027 1.57772 13.4755 1.67178C13.9484 1.76583 14.3827 1.99798 14.7236 2.33887C15.0645 2.67976 15.2966 3.11408 15.3907 3.58691C15.4847 4.05974 15.4364 4.54984 15.252 4.99523C15.0675 5.44063 14.755 5.82131 14.3542 6.08915C13.9534 6.35698 13.4821 6.49994 13 6.49994C12.3535 6.49994 11.7335 6.24313 11.2764 5.78601C10.8193 5.32889 10.5625 4.70891 10.5625 4.06244ZM21.581 14.1689L16.9782 8.95064C16.7495 8.69119 16.4682 8.48338 16.153 8.34102C15.8378 8.19865 15.4959 8.125 15.1501 8.12494H10.8499C10.5041 8.125 10.1622 8.19865 9.84698 8.34102C9.53179 8.48338 9.25049 8.69119 9.0218 8.95064L4.41898 14.1689C4.19003 14.3979 4.0614 14.7084 4.0614 15.0322C4.0614 15.356 4.19003 15.6665 4.41898 15.8955C4.64794 16.1244 4.95847 16.2531 5.28227 16.2531C5.60606 16.2531 5.91659 16.1244 6.14555 15.8955L9.75 12.9999L7.42727 21.8288C7.29613 22.1209 7.28523 22.4529 7.39692 22.753C7.50862 23.0531 7.73393 23.2972 8.02415 23.4325C8.31437 23.5678 8.64619 23.5834 8.94785 23.4761C9.24952 23.3687 9.49681 23.1469 9.63625 22.8586L13 17.0624L16.3638 22.8586C16.5032 23.1469 16.7505 23.3687 17.0521 23.4761C17.3538 23.5834 17.6856 23.5678 17.9759 23.4325C18.2661 23.2972 18.4914 23.0531 18.6031 22.753C18.7148 22.4529 18.7039 22.1209 18.5727 21.8288L16.25 12.9999L19.8565 15.8935C19.9699 16.0068 20.1044 16.0968 20.2526 16.1581C20.4007 16.2195 20.5594 16.251 20.7198 16.251C20.8801 16.251 21.0388 16.2195 21.187 16.1581C21.3351 16.0968 21.4697 16.0068 21.583 15.8935C21.6964 15.7801 21.7863 15.6455 21.8477 15.4974C21.9091 15.3493 21.9406 15.1905 21.9406 15.0302C21.9406 14.8698 21.9091 14.7111 21.8477 14.563C21.7863 14.4148 21.6964 14.2803 21.583 14.1669L21.581 14.1689Z" fill="#838383"/>
<path d="M16.25 4.06247C16.25 3.41968 16.0594 2.79133 15.7023 2.25687C15.3452 1.72241 14.8376 1.30585 14.2437 1.05986C13.6499 0.813878 12.9964 0.749517 12.366 0.874919C11.7355 1.00032 11.1564 1.30985 10.7019 1.76437C10.2474 2.21889 9.93785 2.79799 9.81245 3.42843C9.68705 4.05887 9.75141 4.71233 9.9974 5.30619C10.2434 5.90005 10.6599 6.40763 11.1944 6.76475C11.7289 7.12186 12.3572 7.31247 13 7.31247C13.862 7.31247 14.6886 6.97006 15.2981 6.36057C15.9076 5.75108 16.25 4.92443 16.25 4.06247ZM13 5.68747C12.6786 5.68747 12.3644 5.59217 12.0972 5.41361C11.83 5.23505 11.6217 4.98126 11.4987 4.68433C11.3757 4.3874 11.3435 4.06067 11.4062 3.74545C11.4689 3.43023 11.6237 3.14068 11.851 2.91342C12.0782 2.68616 12.3678 2.5314 12.683 2.4687C12.9982 2.40599 13.3249 2.43817 13.6219 2.56117C13.9188 2.68416 14.1726 2.89244 14.3511 3.15967C14.5297 3.4269 14.625 3.74108 14.625 4.06247C14.625 4.49345 14.4538 4.90677 14.1491 5.21152C13.8443 5.51627 13.431 5.68747 13 5.68747ZM22.1752 13.6144L17.5876 8.41239C17.2826 8.06665 16.9075 7.78975 16.4872 7.60011C16.0669 7.41047 15.6111 7.31242 15.1501 7.31247H10.8499C10.3889 7.31242 9.93306 7.41047 9.51281 7.60011C9.09255 7.78975 8.71745 8.06665 8.41243 8.41239L3.82485 13.6144C3.45229 13.9955 3.2444 14.5076 3.24598 15.0405C3.24756 15.5734 3.4585 16.0844 3.83331 16.4632C4.20813 16.842 4.71679 17.0583 5.24964 17.0656C5.78249 17.0728 6.29684 16.8703 6.6818 16.5018L8.33727 15.1734L6.65743 21.5597C6.43494 22.0506 6.41657 22.6098 6.60637 23.1142C6.79617 23.6187 7.17859 24.0271 7.6695 24.2495C8.16041 24.472 8.71959 24.4904 9.22405 24.3006C9.7285 24.1108 10.1369 23.7284 10.3594 23.2375L13 18.6804L15.6406 23.2375C15.8731 23.7119 16.2812 24.0771 16.7784 24.2556C17.2757 24.4341 17.8229 24.4119 18.304 24.1936C18.7851 23.9753 19.1622 23.5781 19.3554 23.0864C19.5485 22.5947 19.5425 22.047 19.3385 21.5597L17.6627 15.1734L19.3182 16.5018C19.7032 16.8703 20.2175 17.0728 20.7504 17.0656C21.2832 17.0583 21.7919 16.842 22.1667 16.4632C22.5415 16.0844 22.7524 15.5734 22.754 15.0405C22.7556 14.5076 22.5477 13.9955 22.1752 13.6144ZM21.0062 15.3176C20.9684 15.3554 20.9236 15.3854 20.8743 15.4058C20.825 15.4263 20.7721 15.4368 20.7188 15.4368C20.6654 15.4368 20.6125 15.4263 20.5632 15.4058C20.5139 15.3854 20.4691 15.3554 20.4313 15.3176C20.41 15.2973 20.3887 15.277 20.3653 15.2587L16.7578 12.3662C16.6247 12.2599 16.4615 12.1982 16.2914 12.1897C16.1212 12.1813 15.9527 12.2265 15.8097 12.319C15.6666 12.4115 15.5563 12.5466 15.4942 12.7053C15.4322 12.8639 15.4216 13.0381 15.4639 13.2031L17.7877 22.039C17.7996 22.0862 17.8159 22.1321 17.8364 22.1761C17.8599 22.2246 17.8734 22.2773 17.8764 22.331C17.8793 22.3848 17.8715 22.4386 17.8534 22.4893C17.8354 22.54 17.8074 22.5866 17.7712 22.6265C17.7349 22.6663 17.6912 22.6985 17.6424 22.7213C17.5936 22.744 17.5407 22.7568 17.4869 22.759C17.4331 22.7611 17.3795 22.7526 17.329 22.7338C17.2785 22.715 17.2323 22.6864 17.193 22.6496C17.1537 22.6128 17.1221 22.5685 17.1001 22.5194C17.0901 22.4975 17.0789 22.4761 17.0666 22.4554L13.7028 16.6562C13.6314 16.5331 13.5289 16.4309 13.4055 16.3599C13.2822 16.2888 13.1423 16.2514 13 16.2514C12.8577 16.2514 12.7178 16.2888 12.5945 16.3599C12.4711 16.4309 12.3686 16.5331 12.2972 16.6562L8.93751 22.4504C8.92513 22.471 8.91394 22.4924 8.90399 22.5143C8.88143 22.5628 8.84954 22.6062 8.81016 22.6423C8.77077 22.6784 8.72466 22.7063 8.67446 22.7246C8.59891 22.7523 8.51684 22.7569 8.43866 22.7379C8.36047 22.7189 8.28969 22.6771 8.2353 22.6178C8.1809 22.5585 8.14534 22.4844 8.13311 22.4049C8.12089 22.3253 8.13256 22.244 8.16665 22.1711C8.18711 22.127 8.20343 22.0811 8.2154 22.034L10.5361 13.2031C10.5784 13.0381 10.5678 12.8639 10.5058 12.7053C10.4437 12.5466 10.3334 12.4115 10.1903 12.319C10.0473 12.2265 9.87879 12.1813 9.70865 12.1897C9.53851 12.1982 9.37533 12.2599 9.24219 12.3662L5.63469 15.2587C5.61133 15.277 5.59001 15.2973 5.56868 15.3176C5.53136 15.357 5.48655 15.3884 5.43688 15.4102C5.38721 15.432 5.33369 15.4435 5.27947 15.4443C5.22525 15.445 5.17143 15.4349 5.12118 15.4145C5.07094 15.3941 5.02528 15.3639 4.9869 15.3256C4.94853 15.2873 4.91821 15.2417 4.89773 15.1915C4.87726 15.1413 4.86705 15.0875 4.86769 15.0332C4.86834 14.979 4.87983 14.9255 4.9015 14.8758C4.92316 14.8261 4.95456 14.7812 4.99383 14.7438C5.00602 14.7316 5.01719 14.7194 5.02836 14.7062L9.63118 9.48693C9.78374 9.31414 9.9713 9.17579 10.1814 9.08106C10.3916 8.98633 10.6194 8.93738 10.8499 8.93747H15.1501C15.3806 8.93738 15.6085 8.98633 15.8186 9.08106C16.0287 9.17579 16.2163 9.31414 16.3688 9.48693L20.9716 14.7062C20.9828 14.7194 20.994 14.7316 21.0062 14.7438C21.0821 14.82 21.1248 14.9231 21.1248 15.0307C21.1248 15.1383 21.0821 15.2415 21.0062 15.3176Z" fill="#838383"/>
</svg>
