<svg width="26" height="26" viewBox="0 0 26 26" fill="none" xmlns="http://www.w3.org/2000/svg">
<path opacity="0.3" d="M18.9583 21.6667C20.4541 21.6667 21.6667 20.4541 21.6667 18.9583C21.6667 17.4626 20.4541 16.25 18.9583 16.25C17.4626 16.25 16.25 17.4626 16.25 18.9583C16.25 20.4541 17.4626 21.6667 18.9583 21.6667Z" fill="#838383"/>
<path opacity="0.3" d="M5.41675 16.7917H9.75008V21.125H5.41675V16.7917ZM13.0001 6.32666L10.9092 9.74999H15.0909L13.0001 6.32666Z" fill="#838383"/>
<path d="M13 2.16666L7.04167 11.9167H18.9583L13 2.16666ZM13 6.32666L15.0908 9.74999H10.8983L13 6.32666ZM18.9583 14.0833C16.2608 14.0833 14.0833 16.2608 14.0833 18.9583C14.0833 21.6558 16.2608 23.8333 18.9583 23.8333C21.6558 23.8333 23.8333 21.6558 23.8333 18.9583C23.8333 16.2608 21.6558 14.0833 18.9583 14.0833ZM18.9583 21.6667C18.24 21.6667 17.5512 21.3813 17.0433 20.8734C16.5353 20.3655 16.25 19.6766 16.25 18.9583C16.25 18.24 16.5353 17.5512 17.0433 17.0432C17.5512 16.5353 18.24 16.25 18.9583 16.25C19.6766 16.25 20.3655 16.5353 20.8734 17.0432C21.3813 17.5512 21.6667 18.24 21.6667 18.9583C21.6667 19.6766 21.3813 20.3655 20.8734 20.8734C20.3655 21.3813 19.6766 21.6667 18.9583 21.6667ZM11.9167 14.625H3.25V23.2917H11.9167V14.625ZM9.75 21.125H5.41667V16.7917H9.75V21.125Z" fill="#838383"/>
</svg>
