<svg width="19" height="19" viewBox="0 0 19 19" fill="none" xmlns="http://www.w3.org/2000/svg">
<path d="M5.75 14.75V10.25H13.25V14.75H14.75V6.371L12.629 4.25H4.25V14.75H5.75ZM3.5 2.75H13.25L16.25 5.75V15.5C16.25 15.6989 16.171 15.8897 16.0303 16.0303C15.8897 16.171 15.6989 16.25 15.5 16.25H3.5C3.30109 16.25 3.11032 16.171 2.96967 16.0303C2.82902 15.8897 2.75 15.6989 2.75 15.5V3.5C2.75 3.30109 2.82902 3.11032 2.96967 2.96967C3.11032 2.82902 3.30109 2.75 3.5 2.75ZM7.25 11.75V14.75H11.75V11.75H7.25Z" fill="white"/>
</svg>
