<svg width="18" height="18" viewBox="0 0 18 18" fill="none" xmlns="http://www.w3.org/2000/svg">
<path opacity="0.5" d="M2.25 7.5C2.25 4.67175 2.25 3.25725 3.129 2.379C4.00725 1.5 5.42175 1.5 8.25 1.5H9.75C12.5782 1.5 13.9927 1.5 14.871 2.379C15.75 3.25725 15.75 4.67175 15.75 7.5V10.5C15.75 13.3282 15.75 14.7427 14.871 15.621C13.9927 16.5 12.5782 16.5 9.75 16.5H8.25C5.42175 16.5 4.00725 16.5 3.129 15.621C2.25 14.7427 2.25 13.3282 2.25 10.5V7.5Z" fill="#FFF602"/>
<path fill-rule="evenodd" clip-rule="evenodd" d="M5.4375 7.5C5.4375 7.35082 5.49676 7.20774 5.60225 7.10225C5.70774 6.99676 5.85082 6.9375 6 6.9375H12C12.1492 6.9375 12.2923 6.99676 12.3977 7.10225C12.5032 7.20774 12.5625 7.35082 12.5625 7.5C12.5625 7.64918 12.5032 7.79226 12.3977 7.89775C12.2923 8.00324 12.1492 8.0625 12 8.0625H6C5.85082 8.0625 5.70774 8.00324 5.60225 7.89775C5.49676 7.79226 5.4375 7.64918 5.4375 7.5ZM5.4375 10.5C5.4375 10.3508 5.49676 10.2077 5.60225 10.1023C5.70774 9.99676 5.85082 9.9375 6 9.9375H9.75C9.89918 9.9375 10.0423 9.99676 10.1477 10.1023C10.2532 10.2077 10.3125 10.3508 10.3125 10.5C10.3125 10.6492 10.2532 10.7923 10.1477 10.8977C10.0423 11.0032 9.89918 11.0625 9.75 11.0625H6C5.85082 11.0625 5.70774 11.0032 5.60225 10.8977C5.49676 10.7923 5.4375 10.6492 5.4375 10.5Z" fill="#FFF602"/>
</svg>
