<svg width="24" height="24" viewBox="0 0 24 24" fill="none" xmlns="http://www.w3.org/2000/svg">
<g id="ph:gear-six-fill">
<path id="Vector" d="M22.3069 10.0509C22.286 9.9453 22.2426 9.84543 22.1797 9.75807C22.1167 9.67072 22.0357 9.59793 21.9422 9.54467L19.1456 7.95092L19.1344 4.79904C19.134 4.69049 19.1101 4.58331 19.0643 4.4849C19.0185 4.38649 18.9519 4.29919 18.8691 4.22904C17.8546 3.37095 16.6864 2.71336 15.4266 2.29123C15.3273 2.25765 15.2222 2.24522 15.1179 2.25475C15.0136 2.26428 14.9124 2.29555 14.8209 2.34654L12 3.92342L9.17624 2.34373C9.0847 2.29245 8.98341 2.26094 8.87893 2.25125C8.77445 2.24156 8.6691 2.2539 8.56968 2.28748C7.31059 2.71232 6.14366 3.37246 5.13093 4.23279C5.04822 4.30284 4.98166 4.38999 4.93586 4.48823C4.89006 4.58647 4.8661 4.69347 4.86562 4.80186L4.85156 7.95654L2.055 9.55029C1.96143 9.60356 1.88044 9.67634 1.81751 9.7637C1.75458 9.85105 1.7112 9.95093 1.69031 10.0565C1.43437 11.3427 1.43437 12.6667 1.69031 13.9528C1.7112 14.0584 1.75458 14.1583 1.81751 14.2456C1.88044 14.333 1.96143 14.4058 2.055 14.459L4.85156 16.0528L4.86281 19.2056C4.86315 19.3142 4.88705 19.4213 4.93285 19.5197C4.97866 19.6182 5.04528 19.7055 5.12812 19.7756C6.14256 20.6337 7.31077 21.2913 8.57062 21.7134C8.66983 21.747 8.77498 21.7594 8.87929 21.7499C8.9836 21.7404 9.08476 21.7091 9.17624 21.6581L12 20.0765L14.8237 21.6562C14.9355 21.7185 15.0615 21.7508 15.1894 21.75C15.2713 21.75 15.3526 21.7367 15.4303 21.7106C16.6891 21.286 17.8559 20.6265 18.8691 19.7672C18.9518 19.6971 19.0183 19.61 19.0641 19.5117C19.1099 19.4135 19.1339 19.3065 19.1344 19.1981L19.1484 16.0434L21.945 14.4497C22.0386 14.3964 22.1196 14.3236 22.1825 14.2363C22.2454 14.1489 22.2888 14.049 22.3097 13.9434C22.5642 12.6583 22.5632 11.3357 22.3069 10.0509ZM12 15.75C11.2583 15.75 10.5333 15.53 9.91661 15.118C9.29992 14.7059 8.81927 14.1203 8.53545 13.435C8.25162 12.7498 8.17736 11.9958 8.32205 11.2684C8.46674 10.541 8.8239 9.87278 9.34834 9.34833C9.87279 8.82388 10.541 8.46673 11.2684 8.32204C11.9958 8.17734 12.7498 8.2516 13.4351 8.53543C14.1203 8.81926 14.706 9.29991 15.118 9.91659C15.5301 10.5333 15.75 11.2583 15.75 12C15.75 12.9945 15.3549 13.9484 14.6516 14.6516C13.9484 15.3549 12.9946 15.75 12 15.75Z" fill="#838383"/>
</g>
</svg>
