<svg width="26" height="27" viewBox="0 0 26 27" fill="none" xmlns="http://www.w3.org/2000/svg">
<g id="ph:person-duotone">
<g id="Group">
<path id="Vector" opacity="0.5" d="M10.5626 4.5625C10.5626 4.08041 10.7056 3.60914 10.9734 3.2083C11.2413 2.80745 11.6219 2.49503 12.0673 2.31054C12.5127 2.12606 13.0028 2.07779 13.4757 2.17184C13.9485 2.26589 14.3828 2.49804 14.7237 2.83893C15.0646 3.17982 15.2967 3.61414 15.3908 4.08697C15.4848 4.5598 15.4366 5.0499 15.2521 5.49529C15.0676 5.94069 14.7552 6.32137 14.3543 6.58921C13.9535 6.85704 13.4822 7 13.0001 7C12.3537 7 11.7337 6.74319 11.2765 6.28607C10.8194 5.82895 10.5626 5.20897 10.5626 4.5625ZM21.5811 14.669L16.9783 9.4507C16.7496 9.19125 16.4683 8.98344 16.1531 8.84108C15.8379 8.69872 15.4961 8.62506 15.1502 8.625H10.85C10.5042 8.62506 10.1623 8.69872 9.84711 8.84108C9.53191 8.98344 9.25062 9.19125 9.02192 9.4507L4.41911 14.669C4.19015 14.8979 4.06152 15.2085 4.06152 15.5323C4.06152 15.8561 4.19015 16.1666 4.41911 16.3955C4.64806 16.6245 4.95859 16.7531 5.28239 16.7531C5.60618 16.7531 5.91671 16.6245 6.14567 16.3955L9.75012 13.5L7.42739 22.3288C7.29625 22.621 7.28535 22.953 7.39704 23.2531C7.50874 23.5532 7.73405 23.7972 8.02427 23.9326C8.3145 24.0679 8.64631 24.0835 8.94798 23.9761C9.24964 23.8687 9.49693 23.6469 9.63637 23.3587L13.0001 17.5625L16.3639 23.3587C16.5033 23.6469 16.7506 23.8687 17.0523 23.9761C17.3539 24.0835 17.6858 24.0679 17.976 23.9326C18.2662 23.7972 18.4915 23.5532 18.6032 23.2531C18.7149 22.953 18.704 22.621 18.5729 22.3288L16.2501 13.5L19.8566 16.3935C19.97 16.5069 20.1046 16.5968 20.2527 16.6582C20.4008 16.7195 20.5596 16.7511 20.7199 16.7511C20.8802 16.7511 21.039 16.7195 21.1871 16.6582C21.3352 16.5968 21.4698 16.5069 21.5832 16.3935C21.6965 16.2802 21.7865 16.1456 21.8478 15.9974C21.9092 15.8493 21.9408 15.6906 21.9408 15.5302C21.9408 15.3699 21.9092 15.2112 21.8478 15.063C21.7865 14.9149 21.6965 14.7803 21.5832 14.667L21.5811 14.669Z" fill="#0085FE"/>
<path id="Vector_2" d="M16.2501 4.5625C16.2501 3.91971 16.0595 3.29136 15.7024 2.7569C15.3453 2.22244 14.8377 1.80588 14.2438 1.55989C13.65 1.31391 12.9965 1.24955 12.3661 1.37495C11.7356 1.50035 11.1566 1.80988 10.702 2.2644C10.2475 2.71893 9.93798 3.29802 9.81257 3.92846C9.68717 4.5589 9.75153 5.21236 9.99752 5.80622C10.2435 6.40008 10.6601 6.90766 11.1945 7.26478C11.729 7.62189 12.3573 7.8125 13.0001 7.8125C13.8621 7.8125 14.6887 7.47009 15.2982 6.8606C15.9077 6.25111 16.2501 5.42446 16.2501 4.5625ZM13.0001 6.1875C12.6787 6.1875 12.3646 6.0922 12.0973 5.91364C11.8301 5.73508 11.6218 5.48129 11.4988 5.18436C11.3758 4.88743 11.3436 4.5607 11.4064 4.24548C11.4691 3.93026 11.6238 3.64071 11.8511 3.41345C12.0783 3.18619 12.3679 3.03143 12.6831 2.96873C12.9983 2.90602 13.3251 2.93821 13.622 3.0612C13.9189 3.18419 14.1727 3.39247 14.3513 3.6597C14.5298 3.92693 14.6251 4.24111 14.6251 4.5625C14.6251 4.99348 14.4539 5.4068 14.1492 5.71155C13.8444 6.0163 13.4311 6.1875 13.0001 6.1875ZM22.1753 14.1145L17.5877 8.91242C17.2827 8.56668 16.9076 8.28979 16.4873 8.10014C16.0671 7.9105 15.6113 7.81245 15.1502 7.8125H10.85C10.389 7.81245 9.93319 7.9105 9.51293 8.10014C9.09267 8.28979 8.71757 8.56668 8.41255 8.91242L3.82497 14.1145C3.45242 14.4955 3.24452 15.0077 3.2461 15.5406C3.24769 16.0735 3.45862 16.5844 3.83343 16.9632C4.20825 17.342 4.71691 17.5584 5.24976 17.5656C5.78261 17.5728 6.29696 17.3704 6.68192 17.0019L8.33739 15.6734L6.65755 22.0597C6.43506 22.5506 6.41669 23.1098 6.60649 23.6142C6.79629 24.1187 7.17871 24.5271 7.66962 24.7496C8.16053 24.9721 8.71972 24.9904 9.22417 24.8006C9.72862 24.6108 10.137 24.2284 10.3595 23.7375L13.0001 19.1804L15.6408 23.7375C15.8732 24.2119 16.2813 24.5771 16.7786 24.7556C17.2758 24.9341 17.823 24.9119 18.3041 24.6936C18.7852 24.4753 19.1624 24.0782 19.3555 23.5864C19.5486 23.0947 19.5426 22.547 19.3386 22.0597L17.6629 15.6734L19.3183 17.0019C19.7033 17.3704 20.2176 17.5728 20.7505 17.5656C21.2833 17.5584 21.792 17.342 22.1668 16.9632C22.5416 16.5844 22.7526 16.0735 22.7542 15.5406C22.7557 15.0077 22.5478 14.4955 22.1753 14.1145ZM21.0063 15.8177C20.9686 15.8554 20.9238 15.8854 20.8744 15.9058C20.8251 15.9263 20.7723 15.9368 20.7189 15.9368C20.6655 15.9368 20.6126 15.9263 20.5633 15.9058C20.514 15.8854 20.4692 15.8554 20.4315 15.8177C20.4101 15.7973 20.3888 15.777 20.3654 15.7588L16.7579 12.8663C16.6248 12.76 16.4616 12.6982 16.2915 12.6898C16.1213 12.6813 15.9528 12.7265 15.8098 12.819C15.6668 12.9115 15.5564 13.0467 15.4944 13.2053C15.4323 13.364 15.4217 13.5381 15.464 13.7031L17.7878 22.5391C17.7997 22.5862 17.8161 22.6321 17.8365 22.6762C17.86 22.7246 17.8736 22.7773 17.8765 22.831C17.8794 22.8848 17.8716 22.9386 17.8535 22.9893C17.8355 23.04 17.8075 23.0867 17.7713 23.1265C17.7351 23.1663 17.6913 23.1985 17.6425 23.2213C17.5937 23.244 17.5409 23.2569 17.4871 23.259C17.4333 23.2612 17.3796 23.2526 17.3291 23.2338C17.2787 23.215 17.2324 23.1864 17.1931 23.1496C17.1538 23.1128 17.1223 23.0686 17.1002 23.0195C17.0903 22.9975 17.0791 22.9761 17.0667 22.9555L13.7029 17.1563C13.6315 17.0331 13.529 16.9309 13.4057 16.8599C13.2823 16.7888 13.1425 16.7514 13.0001 16.7514C12.8578 16.7514 12.7179 16.7888 12.5946 16.8599C12.4713 16.9309 12.3687 17.0331 12.2973 17.1563L8.93763 22.9504C8.92525 22.9711 8.91406 22.9924 8.90411 23.0144C8.88155 23.0628 8.84967 23.1063 8.81028 23.1424C8.77089 23.1784 8.72478 23.2064 8.67458 23.2246C8.59903 23.2523 8.51696 23.2569 8.43878 23.2379C8.36059 23.2189 8.28981 23.1771 8.23542 23.1178C8.18102 23.0585 8.14546 22.9844 8.13324 22.9049C8.12101 22.8254 8.13269 22.744 8.16677 22.6711C8.18723 22.627 8.20355 22.5811 8.21552 22.534L10.5362 13.7031C10.5785 13.5381 10.5679 13.364 10.5059 13.2053C10.4438 13.0467 10.3335 12.9115 10.1905 12.819C10.0474 12.7265 9.87891 12.6813 9.70877 12.6898C9.53863 12.6982 9.37545 12.76 9.24232 12.8663L5.63482 15.7588C5.61146 15.777 5.59013 15.7973 5.5688 15.8177C5.53149 15.857 5.48667 15.8885 5.437 15.9102C5.38733 15.932 5.33381 15.9436 5.27959 15.9443C5.22537 15.9451 5.17155 15.9349 5.12131 15.9145C5.07106 15.8942 5.0254 15.8639 4.98703 15.8256C4.94865 15.7873 4.91833 15.7417 4.89786 15.6915C4.87738 15.6413 4.86717 15.5875 4.86781 15.5333C4.86846 15.479 4.87995 15.4255 4.90162 15.3758C4.92328 15.3261 4.95468 15.2812 4.99396 15.2438C5.00614 15.2316 5.01732 15.2195 5.02849 15.2063L9.6313 9.98696C9.78386 9.81417 9.97143 9.67582 10.1816 9.58109C10.3917 9.48636 10.6196 9.43741 10.85 9.4375H15.1502C15.3807 9.43741 15.6086 9.48636 15.8187 9.58109C16.0288 9.67582 16.2164 9.81417 16.369 9.98696L20.9718 15.2063C20.9829 15.2195 20.9941 15.2316 21.0063 15.2438C21.0823 15.32 21.1249 15.4232 21.1249 15.5307C21.1249 15.6383 21.0823 15.7415 21.0063 15.8177Z" fill="#0085FE"/>
</g>
</g>
</svg>
