<svg width="26" height="27" viewBox="0 0 26 27" fill="none" xmlns="http://www.w3.org/2000/svg">
<g id="solar:sale-bold-duotone">
<path id="Vector" opacity="0.5" d="M10.3914 3.96666C10.2208 4.12056 10.0418 4.26486 9.85514 4.39891C9.5323 4.61557 9.16939 4.76507 8.78805 4.84091C8.6223 4.87341 8.44897 4.88749 8.10339 4.91457C7.23564 4.98391 6.80122 5.01857 6.43939 5.14641C6.02566 5.29248 5.64989 5.52933 5.33964 5.83958C5.02939 6.14982 4.79255 6.5256 4.64647 6.93932C4.51864 7.30116 4.48397 7.73557 4.41464 8.60332C4.40282 8.83274 4.37823 9.06131 4.34097 9.28799C4.26514 9.66932 4.11564 10.0322 3.89897 10.3551C3.80472 10.4959 3.69205 10.6281 3.46672 10.8913C2.9023 11.5543 2.61955 11.8858 2.4538 12.2325C2.07139 13.0342 2.07139 13.9658 2.4538 14.7675C2.61955 15.1142 2.9023 15.4457 3.46672 16.1087C3.69205 16.3719 3.80472 16.5041 3.89897 16.6449C4.11564 16.9677 4.26514 17.3307 4.34097 17.712C4.37347 17.8777 4.38755 18.0511 4.41464 18.3967C4.48397 19.2644 4.51864 19.6988 4.64647 20.0607C4.79255 20.4744 5.02939 20.8502 5.33964 21.1604C5.64989 21.4706 6.02566 21.7075 6.43939 21.8536C6.80122 21.9814 7.23564 22.0161 8.10339 22.0854C8.44897 22.1125 8.6223 22.1266 8.78805 22.1591C9.16939 22.2349 9.5323 22.3855 9.85514 22.6011C9.99597 22.6953 10.1281 22.808 10.3914 23.0333C11.0544 23.5977 11.3859 23.8805 11.7326 24.0462C12.5342 24.4287 13.4659 24.4287 14.2676 24.0462C14.6142 23.8805 14.9457 23.5977 15.6087 23.0333C15.872 22.808 16.0041 22.6953 16.145 22.6011C16.4678 22.3844 16.8307 22.2349 17.2121 22.1591C17.3778 22.1266 17.5511 22.1125 17.8967 22.0854C18.7645 22.0161 19.1989 21.9814 19.5607 21.8536C19.9744 21.7075 20.3502 21.4706 20.6605 21.1604C20.9707 20.8502 21.2076 20.4744 21.3536 20.0607C21.4815 19.6988 21.5161 19.2644 21.5855 18.3967C21.6126 18.0511 21.6266 17.8777 21.6591 17.712C21.735 17.3307 21.8856 16.9677 22.1011 16.6449C22.1954 16.5041 22.3081 16.3719 22.5334 16.1087C23.0978 15.4457 23.3806 15.1142 23.5463 14.7675C23.9287 13.9658 23.9287 13.0342 23.5463 12.2325C23.3806 11.8858 23.0978 11.5543 22.5334 10.8913C22.3792 10.7209 22.2349 10.5419 22.1011 10.3551C21.8847 10.0321 21.7344 9.66942 21.6591 9.28799C21.6219 9.06131 21.5973 8.83273 21.5855 8.60332C21.5161 7.73557 21.4815 7.30116 21.3536 6.93932C21.2076 6.5256 20.9707 6.14982 20.6605 5.83958C20.3502 5.52933 19.9744 5.29248 19.5607 5.14641C19.1989 5.01857 18.7645 4.98391 17.8967 4.91457C17.6673 4.90275 17.4387 4.87816 17.2121 4.84091C16.8306 4.7656 16.4679 4.61537 16.145 4.39891C15.9584 4.26486 15.7793 4.12055 15.6087 3.96666C14.9457 3.40224 14.6142 3.11949 14.2676 2.95374C13.8718 2.76457 13.4387 2.66638 13.0001 2.66638C12.5614 2.66638 12.1283 2.76457 11.7326 2.95374C11.3859 3.11949 11.0544 3.40224 10.3914 3.96666Z" fill="#FDFA00"/>
<path id="Vector_2" d="M17.1491 9.35084C17.3144 9.5162 17.4073 9.74046 17.4073 9.97429C17.4073 10.2081 17.3144 10.4324 17.1491 10.5978L10.0966 17.6503C9.92954 17.8064 9.70836 17.8916 9.47973 17.8878C9.25109 17.884 9.03287 17.7915 8.8711 17.6299C8.70934 17.4683 8.61668 17.2501 8.61268 17.0215C8.60868 16.7928 8.69365 16.5716 8.84967 16.4044L15.9022 9.35084C15.9841 9.26881 16.0813 9.20375 16.1884 9.15935C16.2955 9.11495 16.4103 9.0921 16.5262 9.0921C16.6421 9.0921 16.7569 9.11495 16.8639 9.15935C16.971 9.20375 17.0683 9.26881 17.1502 9.35084M17.1144 16.4402C17.1144 16.7519 16.9906 17.0509 16.7701 17.2713C16.5497 17.4917 16.2507 17.6156 15.939 17.6156C15.6273 17.6156 15.3283 17.4917 15.1079 17.2713C14.8874 17.0509 14.7636 16.7519 14.7636 16.4402C14.7636 16.1284 14.8874 15.8295 15.1079 15.609C15.3283 15.3886 15.6273 15.2648 15.939 15.2648C16.2507 15.2648 16.5497 15.3886 16.7701 15.609C16.9906 15.8295 17.1144 16.1284 17.1144 16.4402ZM10.0608 11.7374C10.3726 11.7374 10.6715 11.6136 10.892 11.3931C11.1124 11.1727 11.2362 10.8737 11.2362 10.562C11.2362 10.2503 11.1124 9.95129 10.892 9.73086C10.6715 9.51042 10.3726 9.38659 10.0608 9.38659C9.74909 9.38659 9.45012 9.51042 9.22969 9.73086C9.00925 9.95129 8.88542 10.2503 8.88542 10.562C8.88542 10.8737 9.00925 11.1727 9.22969 11.3931C9.45012 11.6136 9.74909 11.7374 10.0608 11.7374Z" fill="#FDFA00"/>
</g>
</svg>
