<svg width="7" height="11" viewBox="0 0 7 11" fill="none" xmlns="http://www.w3.org/2000/svg">
<path fill-rule="evenodd" clip-rule="evenodd" d="M0.971446 6.03945C0.830843 5.89881 0.751857 5.70808 0.751857 5.5092C0.751857 5.31033 0.830843 5.1196 0.971447 4.97895L5.2142 0.736203C5.28338 0.66457 5.36614 0.607433 5.45764 0.568127C5.54915 0.52882 5.64756 0.508131 5.74715 0.507265C5.84673 0.5064 5.94549 0.525376 6.03766 0.563086C6.12983 0.600798 6.21357 0.656488 6.28399 0.726908C6.35441 0.797327 6.4101 0.881065 6.44781 0.973237C6.48552 1.06541 6.5045 1.16417 6.50363 1.26375C6.50277 1.36334 6.48208 1.46175 6.44277 1.55326C6.40347 1.64476 6.34633 1.72752 6.2747 1.7967L2.5622 5.5092L6.2747 9.2217C6.41131 9.36315 6.48691 9.55261 6.4852 9.74925C6.48349 9.9459 6.40462 10.134 6.26556 10.2731C6.1265 10.4121 5.93839 10.491 5.74175 10.4927C5.5451 10.4944 5.35565 10.4188 5.2142 10.2822L0.971446 6.03945Z" fill="#DBDBDB"/>
</svg>
