<svg width="12" height="11" viewBox="0 0 12 11" fill="none" xmlns="http://www.w3.org/2000/svg">
<path fill-rule="evenodd" clip-rule="evenodd" d="M0.219493 6.03945C0.0788902 5.89881 -9.63797e-05 5.70808 -9.63623e-05 5.5092C-9.63449e-05 5.31033 0.0788903 5.1196 0.219493 4.97895L4.46224 0.736203C4.53143 0.66457 4.61419 0.607433 4.70569 0.568127C4.79719 0.52882 4.89561 0.508131 4.99519 0.507265C5.09478 0.5064 5.19354 0.525376 5.28571 0.563086C5.37788 0.600798 5.46162 0.656488 5.53204 0.726908C5.60246 0.797327 5.65815 0.881065 5.69586 0.973237C5.73357 1.06541 5.75255 1.16417 5.75168 1.26375C5.75082 1.36334 5.73013 1.46175 5.69082 1.55326C5.65151 1.64476 5.59438 1.72752 5.52274 1.7967L1.81024 5.5092L5.52274 9.2217C5.65936 9.36315 5.73496 9.55261 5.73325 9.74925C5.73154 9.9459 5.65266 10.134 5.51361 10.2731C5.37455 10.4121 5.18644 10.491 4.98979 10.4927C4.79315 10.4944 4.60369 10.4188 4.46224 10.2822L0.219493 6.03945Z" fill="#CBCBCB"/>
<path fill-rule="evenodd" clip-rule="evenodd" d="M6.21949 6.03945C6.07889 5.89881 5.9999 5.70808 5.9999 5.5092C5.9999 5.31033 6.07889 5.1196 6.21949 4.97895L10.4622 0.736203C10.5314 0.66457 10.6142 0.607433 10.7057 0.568127C10.7972 0.52882 10.8956 0.508131 10.9952 0.507265C11.0948 0.5064 11.1935 0.525376 11.2857 0.563086C11.3779 0.600798 11.4616 0.656488 11.532 0.726908C11.6025 0.797327 11.6581 0.881065 11.6959 0.973237C11.7336 1.06541 11.7525 1.16417 11.7517 1.26375C11.7508 1.36334 11.7301 1.46175 11.6908 1.55326C11.6515 1.64476 11.5944 1.72752 11.5227 1.7967L7.81024 5.5092L11.5227 9.2217C11.6594 9.36315 11.735 9.55261 11.7332 9.74925C11.7315 9.9459 11.6527 10.134 11.5136 10.2731C11.3746 10.4121 11.1864 10.491 10.9898 10.4927C10.7931 10.4944 10.6037 10.4188 10.4622 10.2822L6.21949 6.03945Z" fill="#CBCBCB"/>
</svg>
