<svg width="24" height="24" viewBox="0 0 24 24" fill="none" xmlns="http://www.w3.org/2000/svg">
<rect width="24" height="24" rx="3" transform="matrix(-1 0 0 1 24 0)" fill="#212226"/>
<path d="M9.73515 17.6974C8.43767 17.6974 7.32424 17.2761 6.39486 16.4334C5.46495 15.5907 5 14.5407 5 13.2833C5 12.0259 5.46495 10.9759 6.39486 10.1332C7.32424 9.29053 8.43767 8.86918 9.73515 8.86918H14.7913L13.2665 7.3443C13.1193 7.19716 13.0457 7.0099 13.0457 6.7825C13.0457 6.55511 13.1193 6.36784 13.2665 6.22071C13.4136 6.07357 13.6009 6 13.8282 6C14.0556 6 14.2429 6.07357 14.39 6.22071L17.2793 9.10995C17.3595 9.19021 17.4165 9.27715 17.4502 9.37079C17.4834 9.46442 17.5 9.56474 17.5 9.67175C17.5 9.77876 17.4834 9.87908 17.4502 9.97271C17.4165 10.0663 17.3595 10.1533 17.2793 10.2335L14.39 13.1228C14.2429 13.2699 14.0556 13.3435 13.8282 13.3435C13.6009 13.3435 13.4136 13.2699 13.2665 13.1228C13.1193 12.9757 13.0457 12.7884 13.0457 12.561C13.0457 12.3336 13.1193 12.1463 13.2665 11.9992L14.7913 10.4743H9.73515C8.89246 10.4743 8.16025 10.7418 7.53852 11.2769C6.91627 11.8119 6.60514 12.4807 6.60514 13.2833C6.60514 14.0859 6.91627 14.7547 7.53852 15.2897C8.16025 15.8248 8.89246 16.0923 9.73515 16.0923H11.7308C11.9582 16.0923 12.1486 16.1693 12.3022 16.3234C12.4563 16.477 12.5333 16.6675 12.5333 16.8949C12.5333 17.1223 12.4563 17.3127 12.3022 17.4663C12.1486 17.6204 11.9582 17.6974 11.7308 17.6974H9.73515Z" fill="#F7F7F7"/>
</svg>
