<svg width="24" height="24" viewBox="0 0 24 24" fill="none" xmlns="http://www.w3.org/2000/svg">
<rect width="24" height="24" rx="3" fill="#212226"/>
<path d="M14.2648 17.6974C15.5623 17.6974 16.6758 17.2761 17.6051 16.4334C18.535 15.5907 19 14.5407 19 13.2833C19 12.0259 18.535 10.9759 17.6051 10.1332C16.6758 9.29053 15.5623 8.86918 14.2648 8.86918H9.20867L10.7335 7.3443C10.8807 7.19716 10.9543 7.0099 10.9543 6.7825C10.9543 6.55511 10.8807 6.36784 10.7335 6.22071C10.5864 6.07357 10.3991 6 10.1718 6C9.94436 6 9.75709 6.07357 9.60995 6.22071L6.72071 9.10995C6.64045 9.19021 6.58347 9.27715 6.54976 9.37079C6.51659 9.46442 6.5 9.56474 6.5 9.67175C6.5 9.77876 6.51659 9.87908 6.54976 9.97271C6.58347 10.0663 6.64045 10.1533 6.72071 10.2335L9.60995 13.1228C9.75709 13.2699 9.94436 13.3435 10.1718 13.3435C10.3991 13.3435 10.5864 13.2699 10.7335 13.1228C10.8807 12.9757 10.9543 12.7884 10.9543 12.561C10.9543 12.3336 10.8807 12.1463 10.7335 11.9992L9.20867 10.4743H14.2648C15.1075 10.4743 15.8398 10.7418 16.4615 11.2769C17.0837 11.8119 17.3949 12.4807 17.3949 13.2833C17.3949 14.0859 17.0837 14.7547 16.4615 15.2897C15.8398 15.8248 15.1075 16.0923 14.2648 16.0923H12.2692C12.0418 16.0923 11.8514 16.1693 11.6978 16.3234C11.5437 16.477 11.4667 16.6675 11.4667 16.8949C11.4667 17.1223 11.5437 17.3127 11.6978 17.4663C11.8514 17.6204 12.0418 17.6974 12.2692 17.6974H14.2648Z" fill="#F7F7F7"/>
</svg>
