<svg width="12" height="11" viewBox="0 0 12 11" fill="none" xmlns="http://www.w3.org/2000/svg">
<path fill-rule="evenodd" clip-rule="evenodd" d="M11.7876 4.96055C11.9282 5.10119 12.0072 5.29192 12.0072 5.4908C12.0072 5.68967 11.9282 5.8804 11.7876 6.02105L7.54484 10.2638C7.47565 10.3354 7.39289 10.3926 7.30139 10.4319C7.20989 10.4712 7.11147 10.4919 7.01189 10.4927C6.9123 10.4936 6.81354 10.4746 6.72137 10.4369C6.6292 10.3992 6.54546 10.3435 6.47504 10.2731C6.40462 10.2027 6.34893 10.1189 6.31122 10.0268C6.27351 9.93459 6.25453 9.83583 6.2554 9.73625C6.25626 9.63666 6.27695 9.53825 6.31626 9.44674C6.35557 9.35524 6.4127 9.27248 6.48434 9.2033L10.1968 5.4908L6.48434 1.7783C6.34772 1.63685 6.27212 1.44739 6.27383 1.25075C6.27554 1.0541 6.35442 0.865989 6.49347 0.726933C6.63253 0.587877 6.82064 0.509 7.01729 0.507292C7.21393 0.505583 7.40339 0.581179 7.54484 0.717797L11.7876 4.96055Z" fill="#CBCBCB"/>
<path fill-rule="evenodd" clip-rule="evenodd" d="M5.78759 4.96055C5.92819 5.10119 6.00718 5.29192 6.00718 5.4908C6.00718 5.68967 5.92819 5.8804 5.78759 6.02105L1.54484 10.2638C1.47565 10.3354 1.39289 10.3926 1.30139 10.4319C1.20989 10.4712 1.11147 10.4919 1.01189 10.4927C0.912302 10.4936 0.813543 10.4746 0.72137 10.4369C0.629198 10.3992 0.545459 10.3435 0.475039 10.2731C0.40462 10.2027 0.34893 10.1189 0.311219 10.0268C0.273509 9.93459 0.254532 9.83583 0.255398 9.73625C0.256263 9.63666 0.276953 9.53825 0.31626 9.44674C0.355566 9.35524 0.412703 9.27248 0.484336 9.2033L4.19684 5.4908L0.484337 1.7783C0.347718 1.63685 0.272123 1.44739 0.273831 1.25075C0.27554 1.0541 0.354417 0.865989 0.493473 0.726933C0.632529 0.587877 0.820639 0.509 1.01729 0.507292C1.21393 0.505583 1.40339 0.581179 1.54484 0.717797L5.78759 4.96055Z" fill="#CBCBCB"/>
</svg>
