<svg width="7" height="11" viewBox="0 0 7 11" fill="none" xmlns="http://www.w3.org/2000/svg">
<path fill-rule="evenodd" clip-rule="evenodd" d="M6.03612 4.96055C6.17672 5.10119 6.25571 5.29192 6.25571 5.4908C6.25571 5.68967 6.17672 5.8804 6.03612 6.02105L1.79337 10.2638C1.72419 10.3354 1.64143 10.3926 1.54992 10.4319C1.45842 10.4712 1.36001 10.4919 1.26042 10.4927C1.16084 10.4936 1.06208 10.4746 0.969905 10.4369C0.877733 10.3992 0.793994 10.3435 0.723574 10.2731C0.653155 10.2027 0.597465 10.1189 0.559754 10.0268C0.522044 9.93459 0.503068 9.83583 0.503933 9.73625C0.504798 9.63666 0.525488 9.53825 0.564795 9.44674C0.604102 9.35524 0.661238 9.27248 0.732871 9.2033L4.44537 5.4908L0.732872 1.7783C0.596253 1.63685 0.520658 1.44739 0.522367 1.25075C0.524075 1.0541 0.602952 0.865989 0.742008 0.726933C0.881064 0.587877 1.06917 0.509 1.26582 0.507292C1.46247 0.505583 1.65192 0.581179 1.79337 0.717797L6.03612 4.96055Z" fill="#DBDBDB"/>
</svg>
