<svg width="26" height="26" viewBox="0 0 26 26" fill="none" xmlns="http://www.w3.org/2000/svg">
<path d="M6.50004 23.8333C5.90421 23.8333 5.39432 23.6214 4.97037 23.1974C4.54643 22.7735 4.3341 22.2632 4.33337 21.6667V10.8333C4.33337 10.2375 4.54571 9.72762 4.97037 9.30368C5.39504 8.87973 5.90493 8.6674 6.50004 8.66668H7.58337V6.50001C7.58337 5.0014 8.11168 3.72415 9.16829 2.66826C10.2249 1.61237 11.5022 1.08407 13 1.08334C14.4987 1.08334 15.7763 1.61165 16.8329 2.66826C17.8895 3.72487 18.4174 5.00212 18.4167 6.50001V8.66668H19.5C20.0959 8.66668 20.6061 8.87901 21.0308 9.30368C21.4555 9.72834 21.6674 10.2382 21.6667 10.8333V21.6667C21.6667 22.2625 21.4547 22.7728 21.0308 23.1974C20.6068 23.6221 20.0966 23.8341 19.5 23.8333H6.50004ZM13 18.4167C13.5959 18.4167 14.1061 18.2047 14.5308 17.7808C14.9555 17.3568 15.1674 16.8466 15.1667 16.25C15.1667 15.6542 14.9547 15.1443 14.5308 14.7203C14.1068 14.2964 13.5966 14.0841 13 14.0833C12.4042 14.0833 11.8943 14.2957 11.4704 14.7203C11.0464 15.145 10.8341 15.6549 10.8334 16.25C10.8334 16.8458 11.0457 17.3561 11.4704 17.7808C11.895 18.2054 12.4049 18.4174 13 18.4167ZM9.75004 8.66668H16.25V6.50001C16.25 5.59723 15.9341 4.82987 15.3021 4.19793C14.6702 3.56598 13.9028 3.25001 13 3.25001C12.0973 3.25001 11.3299 3.56598 10.698 4.19793C10.066 4.82987 9.75004 5.59723 9.75004 6.50001V8.66668Z" fill="#C9C9C9"/>
</svg>
