<svg width="26" height="26" viewBox="0 0 26 26" fill="none" xmlns="http://www.w3.org/2000/svg">
<path d="M6.49992 8.66667H16.2499V6.5C16.2499 5.59722 15.9339 4.82986 15.302 4.19792C14.6701 3.56597 13.9027 3.25 12.9999 3.25C12.0971 3.25 11.3298 3.56597 10.6978 4.19792C10.0659 4.82986 9.74992 5.59722 9.74992 6.5H7.58325C7.58325 5.00139 8.11156 3.72414 9.16817 2.66825C10.2248 1.61236 11.502 1.08406 12.9999 1.08334C14.4985 1.08334 15.7761 1.61164 16.8328 2.66825C17.8894 3.72486 18.4173 5.00211 18.4166 6.5V8.66667H19.4999C20.0958 8.66667 20.606 8.879 21.0307 9.30367C21.4553 9.72834 21.6673 10.2382 21.6666 10.8333V21.6667C21.6666 22.2625 21.4546 22.7728 21.0307 23.1974C20.6067 23.6221 20.0965 23.8341 19.4999 23.8333H6.49992C5.90409 23.8333 5.3942 23.6214 4.97025 23.1974C4.54631 22.7735 4.33397 22.2632 4.33325 21.6667V10.8333C4.33325 10.2375 4.54559 9.72761 4.97025 9.30367C5.39492 8.87973 5.90481 8.66739 6.49992 8.66667ZM12.9999 18.4167C13.5958 18.4167 14.106 18.2047 14.5307 17.7808C14.9553 17.3568 15.1673 16.8466 15.1666 16.25C15.1666 15.6542 14.9546 15.1443 14.5307 14.7203C14.1067 14.2964 13.5965 14.0841 12.9999 14.0833C12.4041 14.0833 11.8942 14.2957 11.4703 14.7203C11.0463 15.145 10.834 15.6549 10.8333 16.25C10.8333 16.8458 11.0456 17.3561 11.4703 17.7808C11.8949 18.2054 12.4048 18.4174 12.9999 18.4167Z" fill="#C9C9C9"/>
</svg>
