<svg width="125" height="34" viewBox="0 0 125 34" fill="none" xmlns="http://www.w3.org/2000/svg">
<path d="M8.50005 30.3C9.50005 31.3 11.1 31.3 12.1 30.3C13.1 29.3 13.1 27.8 12.1 26.8L4.40005 19.3C3.40005 18.3 1.80005 18.3 0.800049 19.3C-0.199951 20.3 -0.199951 21.8 0.800049 22.8L5.30005 27.2001L8.50005 30.3Z" fill="url(#paint0_radial_25_490)"/>
<path d="M12.1 11.7C11.1 10.7 9.49998 10.7 8.49998 11.7L0.799981 19.2C-0.200019 20.2 -0.200019 21.6 0.699981 22.6L5.19998 27C2.89998 24.8 6.19998 21 6.19998 21L12.1 15.2C13.1 14.3 13.1 12.7 12.1 11.7Z" fill="url(#paint1_linear_25_490)"/>
<path d="M116.5 12.8C115.5 11.8 113.9 11.8 112.9 12.8C111.9 13.8 111.9 15.3 112.9 16.3L120.6 23.8C121.6 24.8 123.2 24.8 124.2 23.8C125.2 22.8 125.2 21.3 124.2 20.3L119.7 15.9L116.5 12.8Z" fill="url(#paint2_linear_25_490)"/>
<path d="M112.9 31.3C113.9 32.3 115.5 32.3 116.5 31.3L124.2 23.8C125.2 22.8 125.2 21.4 124.3 20.4L119.8 16C122.2 18.4 119 22.2 119 22.2L113.1 28C111.9 28.7 111.9 30.3 112.9 31.3Z" fill="url(#paint3_linear_25_490)"/>
<path d="M37.451 13.1077C37.7679 13.1077 38.0849 13.4308 37.9793 13.7538L35.866 26.0308C35.866 26.2462 35.6547 26.4615 35.549 26.6769C35.3377 26.8923 35.1263 27 34.915 27C34.7037 27 34.3867 27 34.1754 26.8923C33.9641 26.7846 33.7527 26.6769 33.6471 26.4615L29.1035 18.9231L24.56 26.4615C24.4543 26.6769 24.3486 26.7846 24.1373 26.8923C23.926 27 23.7147 27 23.5033 27C23.292 27 22.975 26.8923 22.8693 26.7846C22.341 26.5692 22.1297 26.3538 22.1297 26.0308L20.0164 13.9692C19.9108 13.5385 20.3334 13.1077 20.7561 13.1077H22.024C22.2354 13.1077 22.4467 13.2154 22.4467 13.4308L24.0316 22.1538L27.9412 15.9077C28.0469 15.6923 28.1525 15.5846 28.3639 15.4769C28.5752 15.3692 28.7865 15.3692 28.9978 15.3692C29.2092 15.3692 29.4205 15.3692 29.6318 15.4769C29.8432 15.5846 29.9488 15.6923 30.0545 15.9077L33.964 22.1538L35.549 13.5385C35.549 13.2154 35.866 13 36.183 13L37.451 13.1077Z" fill="#595959"/>
<path d="M43.6609 27H42.8304C42.3114 27 42 26.5938 42 26.1875V14.8125C42 14.4063 42.4152 14 42.8304 14H43.5571C44.0761 14 44.3875 14.4063 44.3875 14.8125V26.1875C44.4913 26.5938 44.0761 27 43.6609 27ZM54.1453 27H53.1072C52.8996 27 52.692 26.8984 52.4844 26.7969L47.5017 21.9219C47.2941 21.8203 47.0865 21.7188 46.8789 21.7188H46.3598C45.8408 21.7188 45.5294 21.3125 45.5294 20.9062V20.1953C45.5294 19.7891 45.9446 19.3828 46.3598 19.3828H46.8789C47.0865 19.3828 47.2941 19.2813 47.5017 19.1797L52.4844 14.3047C52.692 14.2031 52.8996 14.1016 53.1072 14.1016H54.1453C54.8719 14.1016 55.2871 15.0156 54.7681 15.5234L49.8892 20.0938C49.5778 20.3984 49.5778 20.9063 49.8892 21.2109L54.7681 25.7813C55.2871 26.0859 54.8719 27 54.1453 27Z" fill="#595959"/>
<path d="M73 21.229C73 22.084 72.8936 22.8321 72.5745 23.5802C72.2553 24.3282 71.9362 24.8626 71.4043 25.3969C70.8723 25.9313 70.234 26.3588 69.5957 26.5725C68.8511 26.8931 68.1064 27 67.2553 27H63.7447C62.8936 27 62.1489 26.8931 61.4043 26.5725C60.6596 26.2519 60.1277 25.9313 59.5957 25.3969C59.0638 24.8626 58.6383 24.3282 58.4255 23.5802C58.1064 22.8321 58 22.084 58 21.229V18.6641C58 17.8092 58.1064 17.0611 58.4255 16.4198C58.7447 15.6718 59.1702 15.1374 59.5957 14.6031C60.1277 14.0687 60.766 13.7481 61.4043 13.4275C62.1489 13.1069 62.8936 13 63.7447 13H67.1489C68 13 68.7447 13.1069 69.4894 13.4275C70.234 13.7481 70.766 14.0687 71.2979 14.6031C71.8298 15.1374 72.2553 15.6718 72.4681 16.4198C72.7872 17.1679 72.8936 17.916 72.8936 18.6641V21.229H73ZM70.4468 18.6641C70.4468 18.1298 70.3404 17.7023 70.234 17.3817C70.0213 16.9542 69.8085 16.6336 69.5957 16.313C69.2766 15.9924 68.9574 15.7786 68.5319 15.6718C68.1064 15.5649 67.6809 15.458 67.1489 15.458H63.7447C63.2128 15.458 62.7872 15.5649 62.3617 15.6718C61.9362 15.7786 61.617 16.0992 61.2979 16.313C60.9787 16.6336 60.766 16.9542 60.6596 17.3817C60.5532 17.8092 60.4468 18.2366 60.4468 18.6641V21.229C60.4468 21.7634 60.5532 22.1908 60.6596 22.5114C60.8723 22.9389 61.0851 23.2595 61.2979 23.5802C61.617 23.9008 61.9362 24.1145 62.3617 24.2214C62.7872 24.3282 63.2128 24.4351 63.7447 24.4351H67.1489C67.6809 24.4351 68.1064 24.3282 68.5319 24.2214C68.9574 24.1145 69.2766 23.7939 69.5957 23.5802C69.9149 23.2595 70.1277 22.9389 70.234 22.5114C70.4468 22.084 70.4468 21.6565 70.4468 21.229V18.6641Z" fill="#595959"/>
<path d="M91 21.1395C91 22.0078 90.8931 22.7674 90.5725 23.5271C90.2519 24.2868 89.8244 24.8295 89.3969 25.3721C88.8626 25.9147 88.2214 26.2403 87.5802 26.5659C86.8321 26.8915 86.084 27 85.229 27H78.3893C78.1756 27 78.0687 27 77.855 26.8915C77.7481 26.7829 77.5344 26.7829 77.4275 26.6744C77.3206 26.5659 77.2137 26.4574 77.1069 26.2403C77 26.0233 77 25.9147 77 25.6977V14.3023C77 14.0853 77 13.9767 77.1069 13.7597C77.2137 13.5426 77.2137 13.4341 77.4275 13.3256C77.5344 13.2171 77.6412 13.1085 77.855 13.1085C77.9618 13 78.1756 13 78.3893 13H85.229C86.084 13 86.8321 13.1085 87.5802 13.4341C88.3282 13.7597 88.8626 14.0853 89.3969 14.6279C89.9313 15.1705 90.3588 15.7132 90.5725 16.4729C90.8931 17.2326 91 17.9922 91 18.7519V21.1395ZM88.4351 18.8605C88.4351 18.3178 88.3282 17.8837 88.2214 17.5581C88.0076 17.124 87.7939 16.7985 87.5802 16.4729C87.2595 16.1473 86.9389 15.9302 86.5115 15.8217C86.084 15.7132 85.6565 15.6047 85.1221 15.6047H79.5649V24.5039H85.1221C85.6565 24.5039 86.084 24.3953 86.5115 24.2868C86.9389 24.1783 87.2595 23.8527 87.5802 23.6357C87.9008 23.3101 88.1145 22.9845 88.2214 22.5504C88.4351 22.1163 88.4351 21.6822 88.4351 21.2481V18.8605Z" fill="#595959"/>
<path d="M106.892 26.4574C106.892 26.7829 106.675 27 106.242 27H97.575C97.25 27 96.8167 26.8915 96.3833 26.7829C95.95 26.6744 95.5167 26.4574 95.1917 26.1318C94.8667 25.8062 94.5417 25.4806 94.325 25.0465C94.1083 24.6124 94 24.0698 94 23.4186V14.3023C94 14.0853 94 13.9767 94.1083 13.7597C94.2167 13.6512 94.2167 13.4341 94.4333 13.3256C94.5417 13.2171 94.65 13.1085 94.8667 13.1085C94.975 13 95.1917 13 95.4083 13H106.35C106.675 13 107 13.2171 107 13.5426V14.845C107 15.1705 106.783 15.3876 106.35 15.3876H97.25C96.925 15.3876 96.6 15.6047 96.6 15.9302V23.5271C96.6 23.8527 96.7083 24.0698 96.8167 24.2868C97.0333 24.5039 97.25 24.5039 97.575 24.5039H106.242C106.567 24.5039 106.892 24.7209 106.892 25.0465V26.4574ZM105.158 21.3566H98.225C97.9 21.3566 97.575 21.1395 97.575 20.814V19.5116C97.575 19.186 97.7917 18.969 98.225 18.969H105.158C105.483 18.969 105.808 19.186 105.808 19.5116V20.814C105.7 21.1395 105.483 21.3566 105.158 21.3566Z" fill="#595959"/>
<path d="M24.6 32.9V31.9L24.1 32.7H23.9L23.4 31.9V32.9H23V31.2H23.3L23.9 32.2L24.5 31.2H24.8V32.9H24.6Z" fill="#595959"/>
<path d="M28.6999 32.6H27.8999L27.6999 33H27.2999L28.0999 31.3H28.4999L29.2999 33H28.8999L28.6999 32.6ZM28.4999 32.3L28.1999 31.7001L27.8999 32.3H28.4999Z" fill="#595959"/>
<path d="M32.7 32.9L32.4 32.4H32.1V32.9H31.7V31.2H32.4C32.9 31.2 33.1 31.3999 33.1 31.7999C33.1 31.9999 32.9999 32.1999 32.7999 32.2999L33.2 32.7999L32.7 32.9ZM32.2999 31.6H32V32.2H32.2999C32.4999 32.2 32.7 32.1 32.7 31.9C32.7 31.7 32.5999 31.6 32.2999 31.6Z" fill="#595959"/>
<path d="M36.2 32.2999L36 32.5V32.9H35.6V31.2H36V32L36.8 31.2H37.2L36.5 32L37.3 32.9H36.8L36.2 32.2999Z" fill="#595959"/>
<path d="M40.9 32.5999V32.9H39.6V31.2H40.9V31.5H40V31.9H40.8V32.2H40V32.5999H40.9Z" fill="#595959"/>
<path d="M43.7 31.6H43.2V31.3H44.7V31.6H44.2V33H43.7999L43.7 31.6Z" fill="#595959"/>
<path d="M47.1 31.2H47.5V32.9H47.1V31.2Z" fill="#595959"/>
<path d="M51.6 31.2V32.9H51.3L50.4 31.9V32.9H50V31.2H50.3L51.2 32.2V31.2H51.6Z" fill="#595959"/>
<path d="M55.4 32.0999H55.7999V32.7999C55.5999 32.8999 55.3 33 55.1 33C54.6 33 54.2 32.5999 54.2 32.0999C54.2 31.5999 54.6 31.2 55.1 31.2C55.4 31.2 55.6999 31.3 55.7999 31.5L55.5 31.7C55.4 31.6 55.2 31.5 55.1 31.5C54.8 31.5 54.5 31.7 54.5 32C54.5 32.3 54.7 32.5 55.1 32.5C55.2 32.5 55.3 32.5 55.4 32.4V32.0999Z" fill="#595959"/>
<path d="M62.5 32.5999V32.9H61.2V31.2H62.5V31.5H61.6V31.9H62.3999V32.2H61.6V32.5999H62.5Z" fill="#595959"/>
<path d="M68.2 31.6H67.7V31.3H69.2V31.6H68.7V33H68.2V31.6Z" fill="#595959"/>
<path d="M72.9 32.5999V32.9H71.6V31.2H72.9V31.5H72V31.9H72.8V32.2H72V32.5999H72.9Z" fill="#595959"/>
<path d="M75.2999 32.0999C75.2999 31.5999 75.6999 31.2 76.1999 31.2C76.4999 31.2 76.6999 31.3 76.8999 31.5L76.5999 31.7C76.4999 31.6 76.2999 31.5 76.1999 31.5C75.8999 31.5 75.6999 31.7 75.6999 32C75.6999 32.3 75.8999 32.5 76.1999 32.5C76.3999 32.5 76.4999 32.3999 76.5999 32.2999L76.8999 32.5C76.6999 32.7 76.4999 32.7999 76.1999 32.7999C75.6999 32.9999 75.2999 32.5999 75.2999 32.0999Z" fill="#595959"/>
<path d="M80.8999 31.2V32.9H80.5999L79.6999 31.9V32.9H79.2999V31.2H79.5999L80.4999 32.2V31.2H80.8999Z" fill="#595959"/>
<path d="M83.3999 32.0999C83.3999 31.5999 83.7999 31.2 84.2999 31.2C84.7999 31.2 85.1999 31.5999 85.1999 32.0999C85.1999 32.5999 84.7999 33 84.2999 33C83.7999 33 83.3999 32.5999 83.3999 32.0999ZM84.8999 32.0999C84.8999 31.7999 84.6999 31.6 84.3999 31.6C84.0999 31.6 83.8999 31.7999 83.8999 32.0999C83.8999 32.3999 84.0999 32.5999 84.3999 32.5999C84.5999 32.5999 84.8999 32.3999 84.8999 32.0999Z" fill="#595959"/>
<path d="M87.7 31.2H88.1V32.5999H89V32.9H87.7V31.2Z" fill="#595959"/>
<path d="M91.2999 32.0999C91.2999 31.5999 91.6999 31.2 92.1999 31.2C92.6999 31.2 93.0999 31.5999 93.0999 32.0999C93.0999 32.5999 92.6999 33 92.1999 33C91.6999 33 91.2999 32.5999 91.2999 32.0999ZM92.6999 32.0999C92.6999 31.7999 92.4999 31.6 92.1999 31.6C91.8999 31.6 91.6999 31.7999 91.6999 32.0999C91.6999 32.3999 91.8999 32.5999 92.1999 32.5999C92.4999 32.5999 92.6999 32.3999 92.6999 32.0999Z" fill="#595959"/>
<path d="M96.8 32.0999H97.2V32.7999C97 32.8999 96.7 33 96.5 33C96 33 95.6 32.5999 95.6 32.0999C95.6 31.5999 96 31.2 96.5 31.2C96.8 31.2 97.1 31.3 97.2 31.5L96.9 31.7C96.8 31.6 96.6 31.5 96.5 31.5C96.2 31.5 95.9 31.7 95.9 32C95.9 32.3 96.1 32.5 96.5 32.5C96.6 32.5 96.7 32.5 96.8 32.4V32.0999Z" fill="#595959"/>
<path d="M99.7 31.2H100.1V32.9H99.7V31.2Z" fill="#595959"/>
<path d="M103.8 32.6H103L102.8 33H102.4L103.2 31.3H103.6L104.4 33H104L103.8 32.6ZM103.7 32.3L103.4 31.7001L103.1 32.3H103.7Z" fill="#595959"/>
<path d="M8 7.1001V1.1001H10.6C11.6 1.1001 12.4 1.4001 13 1.9001C13.6 2.4001 13.9 3.2001 13.9 4.1001C13.9 5.0001 13.6 5.7001 13 6.2001C12.4 6.7001 11.6 7.0001 10.6 7.0001L8 7.1001ZM8.9 6.3001H10.5C11.2 6.3001 11.8 6.1001 12.3 5.7001C12.8 5.3001 13 4.7001 13 4.1001C13 3.4001 12.8 2.9001 12.3 2.5001C11.8 2.1001 11.3 1.9001 10.5 1.9001H8.9V6.3001Z" fill="#595959"/>
<path d="M21.7 4.8001C21.7 4.9001 21.7 4.9001 21.7 5.0001H18C18 5.4001 18.2 5.7001 18.5 6.0001C18.8 6.2001 19.2 6.4001 19.6 6.4001C20.1 6.4001 20.6 6.2001 20.9 5.9001L21.4 6.4001C21 6.9001 20.4 7.1001 19.6 7.1001C18.9 7.1001 18.3 6.9001 17.8 6.5001C17.3 6.1001 17.1 5.5001 17.1 4.8001C17.1 4.1001 17.3 3.6001 17.8 3.2001C18.2 2.8001 18.8 2.6001 19.5 2.6001C20.2 2.6001 20.7 2.8001 21.1 3.2001C21.4 3.6001 21.7 4.1001 21.7 4.8001ZM20.4 3.6001C20.1 3.4001 19.8 3.2001 19.4 3.2001C19 3.2001 18.7 3.3001 18.4 3.6001C18.1 3.8001 18 4.1001 17.9 4.5001H20.9C20.8 4.1001 20.7 3.8001 20.4 3.6001Z" fill="#595959"/>
<path d="M26.5 7.0999C26.1 7.0999 25.8 7.0999 25.4 6.9999C25.1 6.8999 24.8 6.7999 24.6 6.5999L25 5.8999C25.4 6.1999 26 6.3999 26.6 6.3999C27.3 6.3999 27.7 6.1999 27.7 5.7999C27.7 5.5999 27.6 5.4999 27.5 5.3999C27.4 5.2999 27.2 5.2999 27 5.1999C26.8 5.1999 26.5 5.0999 26.3 5.0999C26 5.0999 25.8 4.9999 25.6 4.8999C25.4 4.7999 25.2 4.6999 25.1 4.4999C25 4.2999 24.9 4.0999 24.9 3.7999C24.9 3.3999 25.1 3.0999 25.4 2.7999C25.7 2.5999 26.2 2.3999 26.8 2.3999C27.5 2.3999 28.1 2.4999 28.5 2.7999L28 3.5999C27.6 3.3999 27.2 3.1999 26.7 3.1999C26.4 3.1999 26.1 3.2999 25.9 3.3999C25.7 3.4999 25.6 3.6999 25.6 3.8999C25.6 4.0999 25.7 4.1999 25.9 4.2999C26.1 4.3999 26.3 4.4999 26.6 4.4999C26.9 4.4999 27.2 4.5999 27.5 4.6999C27.8 4.6999 28 4.7999 28.2 4.9999C28.4 5.1999 28.5 5.3999 28.5 5.7999C28.5 6.1999 28.3 6.4999 28 6.7999C27.6 6.9999 27.2 7.0999 26.5 7.0999Z" fill="#595959"/>
<path d="M36.1 4.8001C36.1 4.9001 36.1 4.9001 36.1 5.0001H32.4C32.4 5.4001 32.6 5.7001 32.9 6.0001C33.2 6.3001 33.6 6.4001 34 6.4001C34.5 6.4001 35 6.2001 35.3 5.9001L35.8 6.4001C35.4 6.9001 34.8 7.1001 34 7.1001C33.3 7.1001 32.7 6.9001 32.2 6.5001C31.7 6.1001 31.5 5.5001 31.5 4.8001C31.5 4.1001 31.7 3.6001 32.2 3.2001C32.6 2.8001 33.2 2.6001 33.9 2.6001C34.6 2.6001 35.1 2.8001 35.5 3.2001C35.9 3.6001 36.1 4.1001 36.1 4.8001ZM34.9 3.6001C34.6 3.4001 34.3 3.2001 33.9 3.2001C33.5 3.2001 33.2 3.3001 32.9 3.6001C32.6 3.8001 32.5 4.1001 32.4 4.5001H35.3C35.3 4.1001 35.2 3.8001 34.9 3.6001Z" fill="#595959"/>
<path d="M42.2001 2.5C42.8001 2.5 43.3 2.7 43.6 3C43.9 3.3 44.1 3.8 44.1 4.5V7.1H43.3V4.6C43.3 4.2 43.2 3.8 43 3.6C42.8 3.4 42.5 3.3 42.1 3.3C41.6 3.3 41.3 3.4 41 3.7C40.7 4 40.6 4.3 40.6 4.8V7.1H39.8V2.6H40.6V3.3C40.9 2.8 41.4001 2.5 42.2001 2.5Z" fill="#595959"/>
<path d="M51.3 2.6001H52.1L50.1 7.1001H49.3L47.3 2.6001H48.2001L49.8 6.2001L51.3 2.6001Z" fill="#595959"/>
<path d="M57.3 7.1001C56.6 7.1001 56 6.9001 55.6 6.5001C55.1 6.1001 54.9 5.5001 54.9 4.8001C54.9 4.1001 55.1 3.6001 55.6 3.2001C56.1 2.8001 56.6 2.6001 57.3 2.6001C58 2.6001 58.6 2.8001 59 3.2001C59.5 3.6001 59.7 4.2001 59.7 4.8001C59.7 5.4001 59.4 6.0001 59 6.5001C58.6 6.9001 58 7.1001 57.3 7.1001ZM57.3 6.4001C57.7 6.4001 58.1 6.3001 58.4 6.0001C58.7 5.7001 58.8 5.3001 58.8 4.8001C58.8 4.3001 58.7 3.9001 58.4 3.7001C58.1 3.4001 57.7 3.3001 57.3 3.3001C56.8 3.3001 56.5 3.4001 56.2 3.7001C55.9 4.0001 55.8 4.4001 55.8 4.8001C55.8 5.3001 56 5.7001 56.2 6.0001C56.5 6.3001 56.8 6.4001 57.3 6.4001Z" fill="#595959"/>
<path d="M63.2 7.10005V0.800049H64V7.10005H63.2Z" fill="#595959"/>
<path d="M71.3 2.6001H72.1L70.1 7.1001H69.3L67.3 2.6001H68.2L69.8 6.2001L71.3 2.6001Z" fill="#595959"/>
<path d="M76.2 1.5001C76.1 1.6001 76 1.7001 75.8 1.7001C75.6 1.7001 75.5 1.7001 75.4 1.6001C75.3 1.5001 75.2 1.4001 75.2 1.2001C75.2 1.1001 75.3 0.900098 75.4 0.800098C75.5 0.700098 75.6 0.600098 75.8 0.600098C76 0.600098 76.1 0.600098 76.2 0.700098C76.3 0.800098 76.4 0.900098 76.4 1.1001C76.3 1.3001 76.3 1.4001 76.2 1.5001ZM75.4 7.1001V2.6001H76.2V7.1001H75.4Z" fill="#595959"/>
<path d="M83.7 0.800049H84.5V7.10005H83.7V6.30005C83.3 6.80005 82.8 7.10005 82.1 7.10005C81.4 7.10005 80.9 6.90005 80.4 6.50005C80 6.10005 79.7 5.50005 79.7 4.80005C79.7 4.10005 79.9 3.60005 80.4 3.10005C80.8 2.70005 81.4 2.50005 82.1 2.50005C82.8 2.50005 83.3 2.70005 83.7 3.20005V0.800049ZM82.2 6.40005C82.6 6.40005 83 6.30005 83.3 6.00005C83.6 5.70005 83.7 5.30005 83.7 4.80005C83.7 4.30005 83.5 3.90005 83.3 3.70005C83 3.40005 82.6 3.30005 82.2 3.30005C81.7 3.30005 81.4 3.40005 81.1 3.70005C80.8 4.00005 80.7 4.40005 80.7 4.80005C80.7 5.20005 80.9 5.70005 81.1 6.00005C81.3 6.30005 81.7 6.40005 82.2 6.40005Z" fill="#595959"/>
<path d="M90.5 7.1001C89.8 7.1001 89.2 6.9001 88.8 6.5001C88.3 6.1001 88.1 5.5001 88.1 4.8001C88.1 4.1001 88.3 3.6001 88.8 3.2001C89.3 2.8001 89.8 2.6001 90.5 2.6001C91.2 2.6001 91.8 2.8001 92.2 3.2001C92.7 3.6001 92.9 4.2001 92.9 4.8001C92.9 5.4001 92.7 6.0001 92.2 6.5001C91.8 6.9001 91.2 7.1001 90.5 7.1001ZM90.5 6.4001C90.9 6.4001 91.3 6.3001 91.6 6.0001C91.9 5.7001 92 5.3001 92 4.8001C92 4.3001 91.9 3.9001 91.6 3.7001C91.3 3.4001 90.9 3.3001 90.5 3.3001C90.1 3.3001 89.7 3.4001 89.4 3.7001C89.1 3.9001 89 4.3001 89 4.8001C89 5.3001 89.2 5.7001 89.4 6.0001C89.7 6.3001 90.1 6.4001 90.5 6.4001Z" fill="#595959"/>
<path d="M101.3 2.5C102 2.5 102.5 2.7 103 3.1C103.4 3.5 103.7 4.1 103.7 4.8C103.7 5.5 103.5 6 103 6.5C102.6 6.9 102 7.1 101.3 7.1C100.6 7.1 100.1 6.9 99.7 6.4V8.7H98.9V2.6H99.7V3.3C100 2.8 100.6 2.5 101.3 2.5ZM101.2 6.4C101.7 6.4 102 6.3 102.3 6C102.6 5.7 102.7 5.3 102.7 4.8C102.7 4.3 102.5 4 102.3 3.7C102 3.4 101.6 3.3 101.2 3.3C100.8 3.3 100.4 3.4 100.1 3.7C99.8 4 99.7 4.4 99.7 4.8C99.7 5.3 99.9 5.7 100.1 6C100.4 6.3 100.8 6.4 101.2 6.4Z" fill="#595959"/>
<path d="M109.1 7.1001C108.4 7.1001 107.8 6.9001 107.4 6.5001C106.9 6.1001 106.7 5.5001 106.7 4.8001C106.7 4.1001 106.9 3.6001 107.4 3.2001C107.9 2.8001 108.4 2.6001 109.1 2.6001C109.8 2.6001 110.4 2.8001 110.8 3.2001C111.3 3.6001 111.5 4.2001 111.5 4.8001C111.5 5.4001 111.3 6.0001 110.8 6.5001C110.4 6.9001 109.8 7.1001 109.1 7.1001ZM109.1 6.4001C109.5 6.4001 109.9 6.3001 110.2 6.0001C110.5 5.7001 110.6 5.3001 110.6 4.8001C110.6 4.3001 110.5 3.9001 110.2 3.7001C109.9 3.4001 109.5 3.3001 109.1 3.3001C108.6 3.3001 108.3 3.4001 108 3.7001C107.7 4.0001 107.6 4.4001 107.6 4.8001C107.6 5.3001 107.8 5.7001 108 6.0001C108.3 6.3001 108.7 6.4001 109.1 6.4001Z" fill="#595959"/>
<path d="M115.9 3.3C116.2 2.8 116.8 2.5 117.6 2.5V3.3C117.6 3.3 117.5 3.3 117.4 3.3C116.9 3.3 116.6 3.4 116.3 3.7C116.1 4 116 4.3 116 4.8V7H115.2V2.6H116L115.9 3.3Z" fill="#595959"/>
<defs>
<radialGradient id="paint0_radial_25_490" cx="0" cy="0" r="1" gradientUnits="userSpaceOnUse" gradientTransform="translate(0.573667 20.3636) scale(14.0771 13.7843)">
<stop offset="0.1667" stop-color="#4775B6"/>
<stop offset="0.3142" stop-color="#4977B7"/>
<stop offset="0.4614" stop-color="#4D7FB9"/>
<stop offset="0.6085" stop-color="#568DBB"/>
<stop offset="0.7556" stop-color="#64A0BB"/>
<stop offset="0.9013" stop-color="#78B7B7"/>
<stop offset="1" stop-color="#89C9B2"/>
</radialGradient>
<linearGradient id="paint1_linear_25_490" x1="2.71148" y1="19.0728" x2="20.5269" y2="19.0728" gradientUnits="userSpaceOnUse">
<stop stop-color="#89C9B2"/>
<stop offset="0.0987" stop-color="#78B7B7"/>
<stop offset="0.2444" stop-color="#64A0BB"/>
<stop offset="0.3915" stop-color="#568DBB"/>
<stop offset="0.5386" stop-color="#4D7FB9"/>
<stop offset="0.6858" stop-color="#4977B7"/>
<stop offset="0.8333" stop-color="#4775B6"/>
</linearGradient>
<linearGradient id="paint2_linear_25_490" x1="124.871" y1="18.2538" x2="112.14" y2="18.2538" gradientUnits="userSpaceOnUse">
<stop offset="0.00955605" stop-color="#8C1456"/>
<stop offset="0.1343" stop-color="#8F1B56"/>
<stop offset="0.3029" stop-color="#962A56"/>
<stop offset="0.4966" stop-color="#A33E56"/>
<stop offset="0.7091" stop-color="#B75B51"/>
<stop offset="0.9344" stop-color="#D2813B"/>
<stop offset="1" stop-color="#DB8E2E"/>
</linearGradient>
<linearGradient id="paint3_linear_25_490" x1="122.266" y1="23.9292" x2="104.451" y2="23.9292" gradientUnits="userSpaceOnUse">
<stop stop-color="#DB8E2E"/>
<stop offset="0.0656" stop-color="#D2813B"/>
<stop offset="0.2909" stop-color="#B75B51"/>
<stop offset="0.5034" stop-color="#A33E56"/>
<stop offset="0.6971" stop-color="#962A56"/>
<stop offset="0.8657" stop-color="#8F1B56"/>
<stop offset="0.9904" stop-color="#8C1456"/>
</linearGradient>
</defs>
</svg>
